<!-- Generated by IcoMoon.io -->
<svg version="1.1" xmlns="http://www.w3.org/2000/svg" width="1024" height="1024" viewBox="0 0 1024 1024">
<title></title>
<g id="icomoon-ignore">
</g>
<path d="M800 960c-105.856 0-192-86.144-192-192 0-18.944 2.859-37.717 8.448-55.979l-237.696-118.827c-36.181 49.579-93.013 78.805-154.752 78.805-105.856 0-192-86.144-192-192s86.144-192 192-192c68.181 0 130.005 35.541 164.651 93.653l223.403-86.869c-2.688-12.885-4.053-25.899-4.053-38.784 0-105.856 86.144-192 192-192s192 86.144 192 192-86.144 192-192 192c-68.139 0-129.963-35.541-164.651-93.611l-223.403 86.869c2.688 12.885 4.053 25.856 4.053 38.741 0 18.944-2.859 37.717-8.491 55.979l237.653 118.827c36.181-49.621 93.056-78.848 154.795-78.848 105.856 0 192 86.144 192 192s-86.101 192.043-191.957 192.043zM800 640c-70.571 0-128 57.429-128 128s57.429 128 128 128 128-57.429 128-128-57.429-128-128-128zM224 352c-70.571 0-128 57.429-128 128s57.429 128 128 128 128-57.429 128-128c0-70.571-57.429-128-128-128zM800 128c-70.571 0-128 57.429-128 128s57.429 128 128 128 128-57.429 128-128-57.429-128-128-128z"></path>
</svg>
