<?xml version="1.0" encoding="UTF-8"?>
<svg width="230px" height="60px" viewBox="0 0 230 60" version="1.1" xmlns="http://www.w3.org/2000/svg" xmlns:xlink="http://www.w3.org/1999/xlink">
    <!-- Generator: Sketch 59.1 (86144) - https://sketch.com -->
    <title>AXON Ivy Logo</title>
    <desc>Created with Sketch.</desc>
    <g id="™-Logo" stroke="none" stroke-width="1" fill="none" fill-rule="evenodd">
        <g id="Logo" transform="translate(-400.000000, -446.000000)">
            <g id="01-Navigation-/-01-Logo-/-Complete" transform="translate(400.000000, 446.000000)">
                <g id="Logo">
                    <path d="M66.5343467,50.175 L67.9361619,54.075 C68.0542095,54.435 68.1722571,54.843 68.2903047,55.1838 L68.3788404,55.425 C68.5263999,55.05 68.6001797,54.525 68.8215189,54.075 L70.0757747,50.175 L71.3300304,50.175 L69.5593164,54.9 C68.7477392,57.15 68.1575012,58.35 67.345924,59.025 C66.755686,59.55 66.165448,59.7 65.870329,59.775 L65.57521,58.8 C65.870329,58.725 66.2392277,58.5 66.6081265,58.2 C66.9032455,57.975 67.345924,57.45 67.5672632,56.85 C67.641043,56.7 67.641043,56.625 67.641043,56.55 C67.641043,56.475 67.641043,56.4 67.5672632,56.25 L65.2063112,50.175 L66.5343467,50.175 Z M15.8476594,50.025 C16.8851872,50.025 17.4687965,50.5523437 17.7808654,51.0508484 L17.8397126,51.15 L17.9134924,50.175 L18.9464089,50.175 C18.8808269,50.575 18.87354,51.0342593 18.8727303,51.7108025 L18.8726291,55.8 L18.9464089,55.8 C18.9464089,57.3 18.6512899,58.275 17.9872721,58.8 C17.3232544,59.4 16.4378974,59.625 15.6263202,59.625 C14.814743,59.625 14.0031657,59.4 13.4867075,59.1 L13.7818265,58.2 C14.224505,58.5 14.8885227,58.725 15.7000999,58.725 C16.8805759,58.725 17.7659329,58.05 17.7659329,56.4 L17.7659329,55.65 C17.3970342,56.25 16.7330164,56.775 15.7000999,56.775 C14.0769455,56.775 12.8964695,55.35 12.8964695,53.55 C12.8964695,51.3 14.2982847,50.025 15.8476594,50.025 Z M6.10873262,47.1 L6.10873262,55.05 C6.10873262,55.65 6.10873262,56.325 6.18251237,56.775 L5.14959589,56.775 L5.07581614,55.65 C4.7069174,56.4 3.96911991,56.925 2.86242368,56.925 C1.31304896,56.925 0.0587932372,55.575 0.0587932372,53.55 C0.0587932372,51.375 1.38682871,50.025 3.00998318,50.025 C3.97403856,50.025 4.61674215,50.417 4.93809394,50.8961111 L5.00203639,51 L5.00203639,47.1 L6.10873262,47.1 Z M100.84193,47.1 L100.84193,51.225 C101.284608,50.475 102.022406,50.025 103.055322,50.025 C104.678477,50.025 105.785173,51.375 105.785173,53.4 C105.785173,55.8 104.309578,56.925 102.833983,56.925 C101.938789,56.925 101.236406,56.5983333 100.786819,55.8230444 L100.69437,55.65 L100.620591,56.775 L99.5876741,56.775 C99.6509139,56.3892857 99.6599481,55.8382653 99.6612387,55.3108601 L99.6614538,47.1 L100.84193,47.1 Z M83.0610104,50.1 L83.0610104,53.775 C83.0610104,55.05 83.4299092,55.875 84.5366054,55.875 C85.3481826,55.875 85.8646409,55.35 86.0859801,54.75 C86.1450039,54.63 86.1568087,54.462 86.1591696,54.2844 L86.1597599,50.1 L87.3402358,50.1 L87.3402358,54.975 L87.2664561,54.975 C87.2664561,55.65 87.2664561,56.25 87.3402358,56.775 L86.3073193,56.775 L86.2335396,55.725 C85.9384206,56.25 85.2744029,56.925 84.0939269,56.925 C83.0610104,56.925 81.8805344,56.325 81.8805344,54 L81.8805344,50.1 L83.0610104,50.1 Z M33.7023586,50.025 C35.6944118,50.025 36.2108701,51.375 36.2108701,52.725 L36.2108701,55.2 C36.2108701,55.8 36.2108701,56.325 36.2846498,56.775 L35.2517333,56.775 L35.1779536,55.95 L35.1041738,55.95 C34.7352751,56.475 34.0712573,56.925 33.1121206,56.925 C31.7840851,56.925 31.1200674,55.95 31.1200674,55.05 C31.1200674,53.475 32.5218826,52.575 35.0303941,52.575 L35.0303941,52.425 C35.0303941,51.9 34.8828346,50.85 33.5547991,50.925 C32.9645611,50.925 32.3005434,51.075 31.8578649,51.45 L31.5627459,50.625 C32.0792041,50.25 32.8907814,50.025 33.7023586,50.025 Z M109.62172,50.1 L109.62172,53.775 C109.62172,55.05 109.990619,55.875 111.097315,55.875 C111.908892,55.875 112.42535,55.35 112.64669,54.75 C112.705713,54.63 112.717518,54.462 112.719879,54.2844 L112.720469,50.1 L113.900945,50.1 L113.900945,54.975 L113.827166,54.975 C113.827166,55.65 113.827166,56.25 113.900945,56.775 L112.868029,56.775 L112.794249,55.725 C112.49913,56.25 111.835112,56.925 110.654636,56.925 C109.62172,56.925 108.441244,56.325 108.441244,54 L108.441244,50.1 L109.62172,50.1 Z M76.125714,50.025 C77.9702078,50.025 79.2244635,51.375 79.2244635,53.4 C79.2244635,55.875 77.5275293,56.925 75.9781545,56.925 C74.2074406,56.925 72.8794051,55.65 72.8794051,53.55 C72.8794051,51.375 74.2812203,50.025 76.125714,50.025 Z M138.617161,49.95 C140.756774,49.95 141.273232,51.825 141.273232,53.1 C141.273232,53.325 141.273232,53.55 141.199452,53.625 L136.625108,53.625 L136.625108,53.7 C136.625108,55.275 137.658024,55.95 138.8385,55.95 C139.650078,55.95 140.240316,55.8 140.609214,55.575 L140.830554,56.4 C140.387875,56.625 139.723857,56.85 138.690941,56.85 C136.698888,56.85 135.518412,55.5 135.518412,53.55 C135.518412,51.525 136.698888,49.95 138.617161,49.95 Z M57.0167592,49.95 C59.1563719,49.95 59.6728301,51.825 59.6728301,53.1 C59.6728301,53.325 59.6728301,53.55 59.5990504,53.625 L55.0247059,53.625 L55.0247059,53.7 C55.0247059,55.275 56.0576224,55.95 57.2380984,55.95 C58.0496756,55.95 58.6399136,55.8 59.0088124,55.575 L59.2301516,56.4 C58.7874731,56.625 58.1234554,56.85 57.0905389,56.85 C55.0984857,56.85 53.9180097,55.5 53.9180097,53.55 C53.9180097,51.525 55.0984857,49.95 57.0167592,49.95 Z M118.844188,50.025 C119.508206,50.025 120.098444,50.175 120.393563,50.4 L120.098444,51.225 C119.877105,51.075 119.360647,50.85 118.770409,50.85 C118.106391,50.85 117.663713,51.225 117.663713,51.75 C117.663713,52.275 118.032611,52.575 118.917968,52.875 C120.024664,53.325 120.614902,53.85 120.614902,54.825 C120.614902,56.025 119.729545,56.85 118.180171,56.85 C117.442373,56.85 116.778356,56.625 116.335677,56.4 L116.704576,55.575 C117.073475,55.8 117.663713,56.025 118.25395,56.025 C119.065528,56.025 119.508206,55.575 119.508206,55.05 C119.508206,54.45 119.139307,54.15 118.32773,53.85 C117.147254,53.4 116.630796,52.725 116.630796,51.975 C116.630796,50.925 117.516153,50.025 118.844188,50.025 Z M152.118855,50.025 C152.782873,50.025 153.373111,50.175 153.66823,50.4 L153.373111,51.225 C153.151772,51.075 152.635313,50.85 152.045075,50.85 C151.381058,50.85 150.938379,51.225 150.938379,51.75 C150.938379,52.275 151.307278,52.575 152.192635,52.875 C153.299331,53.325 153.889569,53.85 153.889569,54.825 C153.889569,56.025 153.004212,56.85 151.454837,56.85 C150.71704,56.85 150.053022,56.625 149.610344,56.4 L149.979242,55.575 C150.348141,55.8 150.938379,56.025 151.528617,56.025 C152.340194,56.025 152.782873,55.575 152.782873,55.05 C152.782873,54.45 152.413974,54.15 151.602397,53.85 C150.421921,53.4 149.905463,52.725 149.905463,51.975 C149.905463,50.925 150.79082,50.025 152.118855,50.025 Z M130.648948,50.025 C131.534305,50.025 132.93612,50.55 132.93612,52.875 L132.93612,56.85 L131.755644,56.85 L131.755644,53.025 C131.755644,51.975 131.386746,51.075 130.28005,51.075 C129.542252,51.075 128.878234,51.6 128.730675,52.275 C128.671651,52.395 128.659846,52.563 128.657485,52.7022 L128.656895,56.775 L127.476419,56.775 L127.476419,51.975 C127.476419,51.3 127.476419,50.7 127.402639,50.175 L128.435556,50.175 L128.509336,51.225 C128.804455,50.625 129.616032,50.025 130.648948,50.025 Z M145.773797,50.025 C146.437814,50.025 147.028052,50.175 147.323171,50.4 L147.028052,51.225 C146.806713,51.075 146.290255,50.85 145.700017,50.85 C145.035999,50.85 144.593321,51.225 144.593321,51.75 C144.593321,52.275 144.962219,52.575 145.847576,52.875 C146.954273,53.325 147.544511,53.85 147.544511,54.825 C147.544511,56.025 146.659154,56.85 145.109779,56.85 C144.371981,56.85 143.707964,56.625 143.265285,56.4 L143.634184,55.575 C144.003083,55.8 144.593321,56.025 145.183559,56.025 C145.995136,56.025 146.437814,55.575 146.437814,55.05 C146.437814,54.45 146.068916,54.15 145.257338,53.85 C144.076863,53.4 143.560404,52.725 143.560404,51.975 C143.560404,50.925 144.445761,50.025 145.773797,50.025 Z M27.5048597,48.6 L27.5048597,50.175 L29.2017939,50.175 L29.2017939,51.075 L27.5048597,51.075 L27.5048597,54.6 C27.5048597,55.425 27.726199,55.875 28.3902167,55.875 C28.6853357,55.875 28.9066749,55.875 29.0542344,55.8 L29.1280142,56.7 C28.9066749,56.775 28.5377762,56.85 28.0950977,56.85 C27.5786395,56.85 27.135961,56.625 26.840842,56.325 C26.545723,55.95 26.3981635,55.35 26.3981635,54.6 L26.3981635,51 L25.365247,51 L25.365247,50.1 L26.3981635,50.1 L26.3981635,48.9 L27.5048597,48.6 Z M10.387958,50.175 L10.387958,56.775 L9.20748206,56.775 L9.20748206,50.175 L10.387958,50.175 Z M23.0780748,50.175 L23.0780748,56.775 L21.8975988,56.775 L21.8975988,50.175 L23.0780748,50.175 Z M44.6217614,50.175 L44.6217614,56.775 L43.4412854,56.775 L43.4412854,50.175 L44.6217614,50.175 Z M124.37767,50.175 L124.37767,56.775 L123.197194,56.775 L123.197194,50.175 L124.37767,50.175 Z M40.342536,47.1 L40.342536,56.775 L39.16206,56.775 L39.16206,47.1 L40.342536,47.1 Z M93.5377347,50.1 L93.5377347,51.225 L93.168836,51.225 L93.168836,51.225 C92.3572587,51.225 91.7670207,51.9 91.6194612,52.725 C91.6194612,52.875 91.5456815,53.1 91.5456815,53.25 L91.5456815,56.775 L90.3652055,56.775 L90.3652055,52.275 L90.2914258,52.275 C90.2914258,51.525 90.2914258,50.85 90.217646,50.25 L91.2505625,50.25 L91.3243423,51.525 L91.398122,51.525 C91.693241,50.625 92.4310385,50.1 93.2426157,50.1 L93.5377347,50.1 L93.5377347,50.1 Z M52.1472957,50.175 L52.1472957,50.925 L49.1961058,54.75 C48.9747666,55.03125 48.7949284,55.2703125 48.5943397,55.5304687 L48.3845286,55.8 L52.2210755,55.8 L52.2210755,56.775 L46.9089336,56.775 L46.9089336,56.1 L49.8601235,52.2 C50.0962187,51.9 50.2850949,51.648 50.5400777,51.3672 L50.7454805,51.15 L47.2040526,51.15 L47.2040526,50.175 L52.1472957,50.175 Z M102.760203,51 C101.948626,51 101.210829,51.6 100.989489,52.5 C100.91571,52.65 100.91571,52.8 100.91571,53.025 L100.91571,54.15 L100.84193,54.15 C100.84193,54.3 100.84193,54.45 100.91571,54.6 C101.137049,55.425 101.874846,56.025 102.686424,56.025 C103.940679,56.025 104.678477,54.975 104.678477,53.475 C104.678477,52.125 104.014459,51 102.760203,51 Z M3.15754268,51 C1.90328695,51 1.23926921,52.125 1.23926921,53.55 C1.23926921,54.9 1.90328695,56.025 3.15754268,56.025 C3.96911991,56.025 4.7069174,55.5 4.8544769,54.6 C4.92825664,54.45 4.92825664,54.3 4.92825664,54.075 L4.92825664,52.875 C4.92825664,52.725 4.92825664,52.5 4.8544769,52.35 C4.7069174,51.6 4.04289966,51 3.15754268,51 Z M76.125714,50.925 C74.7238988,50.925 74.1336608,52.2 74.1336608,53.475 C74.0598811,54.975 74.8714583,56.025 76.0519343,56.025 C77.1586305,56.025 78.0439875,54.975 78.0439875,53.475 C78.0439875,52.35 77.5275293,50.925 76.125714,50.925 Z M35.1041738,53.4 L35.0303941,53.4 C33.7761383,53.4 32.3005434,53.625 32.3005434,54.9 C32.3005434,55.725 32.8170016,56.025 33.4072396,56.025 C34.2925966,56.025 34.8090548,55.5 35.0303941,54.9 C35.1041738,54.75 35.1041738,54.675 35.1041738,54.525 L35.1041738,53.4 Z M16.0689987,51 C14.8885227,51 14.1507252,51.975 14.1507252,53.475 C14.1507252,54.75 14.814743,55.875 16.0689987,55.875 C16.8067962,55.875 17.4708139,55.425 17.6921532,54.6 C17.7659329,54.375 17.7659329,54.15 17.7659329,53.925 L17.7659329,52.8 C17.7659329,52.575 17.7659329,52.425 17.6921532,52.275 C17.4708139,51.6 16.8805759,51 16.0689987,51 Z M56.8691997,50.925 C55.6887237,50.925 55.1722654,52.05 55.0247059,52.875 L58.4923541,52.875 C58.4923541,52.125 58.1972351,50.925 56.8691997,50.925 Z M138.469602,50.925 C137.289126,50.925 136.772667,52.05 136.625108,52.875 L140.092756,52.875 C140.092756,52.125 139.797637,50.925 138.469602,50.925 Z M9.7239403,47.55 C10.1666188,47.55 10.4617378,47.85 10.4617378,48.3 C10.4617378,48.75 10.2403985,49.05 9.7239403,49.05 C9.28126181,49.05 8.98614282,48.675 8.98614282,48.3 C8.98614282,47.85 9.28126181,47.55 9.7239403,47.55 Z M22.4878368,47.55 C22.9305153,47.55 23.2256343,47.85 23.2256343,48.3 C23.2256343,48.75 22.9305153,49.05 22.4878368,49.05 C22.0451583,49.05 21.7500393,48.675 21.7500393,48.3 C21.7500393,47.85 22.0451583,47.55 22.4878368,47.55 Z M43.9577437,47.55 C44.4004221,47.55 44.6955411,47.85 44.6955411,48.3 C44.6955411,48.75 44.4742019,49.05 43.9577437,49.05 C43.5150652,49.05 43.2199462,48.675 43.2199462,48.3 C43.2199462,47.85 43.5150652,47.55 43.9577437,47.55 Z M123.787432,47.55 C124.23011,47.55 124.525229,47.85 124.525229,48.3 C124.525229,48.75 124.23011,49.05 123.787432,49.05 C123.344753,49.05 123.049634,48.675 123.049634,48.3 C123.049634,47.85 123.344753,47.55 123.787432,47.55 Z" id="Subline" fill="#1B1B1B"></path>
                    <path d="M174.441372,0.75 L179.004422,15.7235683 C180.255581,19.8667401 181.433143,23.719163 182.242716,27.7169604 L182.316314,27.7169604 C183.199485,23.7918502 184.450644,19.7940529 185.701803,15.7962555 L190.559243,0.75 L197.035831,0.75 L185.628205,33.75 L178.636434,33.75 L167.81759,0.75 L174.441372,0.75 Z M209.283821,0.75 L213.264866,9.18171806 C214.370712,11.6530837 215.255388,13.4702643 216.213788,15.7235683 L216.287511,15.7235683 C217.098465,13.6156388 218.056865,11.5803965 219.162711,9.18171806 L223.143756,0.75 L230,0.75 L218.867818,19.7940529 L218.867818,33.6773128 L212.896251,33.6773128 L212.896251,20.0121145 L202.28013,0.75 L209.283821,0.75 Z M160.029797,9.68478261 L160.029797,33.6766304 L153.949354,33.6766304 L153.949354,9.68478261 L160.029797,9.68478261 Z M156.952946,0 C159.00418,0 160.32283,1.39402174 160.32283,3.30163043 C160.396089,5.0625 159.077438,6.5298913 156.952946,6.5298913 C154.901712,6.5298913 153.583062,5.0625 153.583062,3.30163043 C153.583062,1.39402174 154.974971,0 156.952946,0 Z" id="IVY" fill="#C7D426"></path>
                    <path d="M82.9700561,0 C92.1480319,0 98.0693065,6.92948718 98.1433225,16.9551282 C98.1433225,28.3814103 91.1118088,34.5 82.5999765,34.5 L82.5999765,34.5 L82.5259605,34.5 C73.5700326,34.5 67.4267101,27.6442308 67.4267101,17.5448718 C67.4267101,6.92948718 74.0141282,0 82.9700561,0 Z M40.6964524,0.75 L45.2044464,8.4718543 C46.4817114,10.6572848 47.4584434,12.3327815 48.3600422,14.0811258 L48.3600422,14.0811258 L48.5103087,14.0811258 C49.4870407,12.1142384 50.3135062,10.5844371 51.5907712,8.4718543 L51.5907712,8.4718543 L56.1738984,0.75 L61.2829583,0.75 L50.9145721,16.7764901 L61.4332248,33.75 L56.3241649,33.75 L51.9664374,26.4652318 C50.1632398,23.6970199 49.1113745,21.8758278 48.0595093,19.9817881 L48.0595093,19.9817881 L47.984376,19.9817881 C47.007644,21.8758278 46.030912,23.6241722 44.3028476,26.5380795 L44.3028476,26.5380795 L40.245653,33.75 L35.2117264,33.75 L45.5801126,17.0678808 L35.5873926,0.75 L40.6964524,0.75 Z M113.285687,0.75 L123.756658,17.4321192 C126.156256,21.2930464 128.119563,24.7168874 129.64658,28.1407285 L129.64658,28.1407285 L129.79201,28.0678808 C129.355719,23.6970199 129.283004,19.6903974 129.283004,14.5910596 L129.283004,14.5910596 L129.355719,14.5910596 L129.355719,0.75 L133.355049,0.75 L133.355049,33.6771523 L129.064859,33.6771523 L118.593888,16.9221854 C116.267005,13.2798013 114.085553,9.49172185 112.485821,5.92218543 L112.485821,5.92218543 L112.340391,5.99503311 C112.558536,10.147351 112.631251,14.1539735 112.631251,19.6175497 L112.631251,19.6175497 L112.631251,33.75 L108.631922,33.75 L108.631922,0.75 L113.285687,0.75 Z M16.456387,0.75 L27.7198697,33.75 L23.1852208,33.75 L19.8208039,23.6970199 L18.650572,20.0546358 L15.4324341,10.5115894 C14.7010391,8.32615894 14.2622021,6.35927152 13.7502256,4.46523179 L13.7502256,4.46523179 L13.6039466,4.46523179 C13.1651096,6.35927152 12.6531331,8.39900662 11.9948777,10.4387417 L11.9948777,10.4387417 L8.77673975,20.3460265 L7.67964728,23.6241722 L4.38836987,33.75 L0,33.75 L11.2634827,0.75 L16.456387,0.75 Z M82.7480083,3.46474359 C75.4944468,3.46474359 71.941682,10.1730769 71.941682,17.3974359 C71.941682,24.400641 75.7905106,30.8878205 82.6739924,30.8878205 L82.6739924,30.8878205 L82.9802259,30.8836493 C89.6736837,30.7004794 93.479214,24.5084673 93.4063027,17.0288462 C93.4063027,10.3942308 89.9275539,3.46474359 82.7480083,3.46474359 Z" id="AXON" fill="#1B1B1B"></path>
                </g>
            </g>
        </g>
    </g>
</svg>