<svg width="64" height="64" viewBox="0 0 64 64" fill="none" xmlns="http://www.w3.org/2000/svg">
<path fill-rule="evenodd" clip-rule="evenodd" d="M64 32C64 14.3266 49.6736 0 32.0005 0C14.3274 0 0 14.3266 0 32C0 49.6734 14.3274 64 32.0005 64C49.6736 64 64 49.6734 64 32Z" fill="white"/>
<path d="M34.3631 16L29.6369 16L19 48H21.3313C23.1024 48 23.1028 47.9987 23.6486 46.2757C24.1943 44.5528 30.3741 25.3165 30.3741 25.3165C30.9766 23.37 31.7731 19.435 31.7731 19.435H32.2269C32.2269 19.435 33.0234 23.37 33.6259 25.3165C33.6259 25.3165 39.8057 44.5528 40.3515 46.2757C40.8972 47.9987 40.8976 48 42.6687 48H45L34.3631 16Z" fill="#1B1B1B"/>
</svg>
