<svg xmlns="http://www.w3.org/2000/svg" viewBox="0 0 32 32" width="32" height="32"><title>graphic tablet drawing pen</title><g class="nc-icon-wrapper" fill="#111111"><path d="M.992 32.008a.99.99 0 0 1-.707-.293c-.189-.19-.293-.44-.293-.708s.104-.519.293-.707l1.906-1.904a2.272 2.272 0 0 1-.007-1.443l2.401-7.209a6.123 6.123 0 0 1 1.466-2.372L21.639 1.785c.153-.154.329-.308.534-.469l.015-.012.052-.039a6.097 6.097 0 0 1 3.695-1.25c1.62 0 3.14.629 4.282 1.77a6.073 6.073 0 0 1 0 8.576L14.628 25.95a6.096 6.096 0 0 1-2.37 1.466l-7.21 2.4a2.26 2.26 0 0 1-1.444-.006l-1.905 1.906a.992.992 0 0 1-.707.293zm3.09-4.425a.27.27 0 0 0 0 .165.263.263 0 0 0 .337.17l6.804-2.266-4.876-4.875-2.266 6.806zm8.989-2.912c.05-.046.098-.09.144-.135L28.579 9.172l-5.75-5.75L7.464 18.786a2.845 2.845 0 0 0-.135.144l5.742 5.742zM29.729 7.495a4.072 4.072 0 0 0-.928-4.296 4.04 4.04 0 0 0-2.874-1.188c-.486 0-.967.088-1.422.258l5.224 5.226z" fill="#111111"/></g></svg>