<svg xmlns="http://www.w3.org/2000/svg" width="32" height="32" viewBox="0 0 32 32"><title>search</title><g fill="#111" class="nc-icon-wrapper"><path fill="#111" d="M30.993 31.995a.99.99 0 0 1-.706-.294L21.6 23.013a13.099 13.099 0 0 1-3.404 2.106 13.021 13.021 0 0 1-10.013.092 12.993 12.993 0 0 1-7.146-7.016C-.329 14.979-.363 11.42.945 8.18S4.744 2.403 7.96 1.036A12.992 12.992 0 0 1 17.973.944 12.993 12.993 0 0 1 25.12 7.96a12.997 12.997 0 0 1 .092 10.013 13.076 13.076 0 0 1-2.199 3.624l8.69 8.691a1 1 0 1 1-.709 1.707zM13.076 1.987a11.012 11.012 0 0 0-4.333.889 11.013 11.013 0 0 0-5.944 6.053 11.013 11.013 0 0 0 .077 8.483 11.013 11.013 0 0 0 6.053 5.944 11.012 11.012 0 0 0 8.483-.079 11.047 11.047 0 0 0 3.459-2.314.487.487 0 0 1 .102-.102 10.993 10.993 0 0 0 2.382-3.637 11.007 11.007 0 0 0-.079-8.483 11.01 11.01 0 0 0-6.053-5.944 11.04 11.04 0 0 0-4.147-.81z"/></g></svg>