<!-- Generated by IcoMoon.io -->
<svg version="1.1" xmlns="http://www.w3.org/2000/svg" width="1024" height="1024" viewBox="0 0 1024 1024">
<title></title>
<g id="icomoon-ignore">
</g>
<path d="M320 544c-17.673 0-32-14.327-32-32s14.327-32 32-32v0h384c17.673 0 32 14.327 32 32s-14.327 32-32 32v0h-384zM512 1024c-282.336 0-512-229.664-512-512s229.664-512 512-512 512 229.664 512 512-229.664 512-512 512zM512 64c-247.040 0-448 200.96-448 448s200.96 448 448 448 448-200.96 448-448-200.96-448-448-448z"></path>
</svg>
