<svg xmlns="http://www.w3.org/2000/svg" width="32" height="32" viewBox="0 0 32 32"><title>task list edit</title><g fill="#111" class="nc-icon-wrapper"><path fill="#111" d="M2.992 32.015a3.003 3.003 0 0 1-3-3v-26a3.003 3.003 0 0 1 3-3h14.172c.801 0 1.555.312 2.12.878l7.83 7.83a2.98 2.98 0 0 1 .878 2.12v.172a1 1 0 0 1-1 1h-8a3.003 3.003 0 0 1-3-3v-7h-13a1 1 0 0 0-1 1v26a1 1 0 0 0 1 1h8a1 1 0 0 1 0 2h-8zm15-23a1 1 0 0 0 1 1h6.585l-7.585-7.586v6.586zM7.24 18.013a1.981 1.981 0 0 1-1.412-.585l-1.541-1.54a.995.995 0 0 1 .706-1.707.99.99 0 0 1 .707.294l1.543 1.541 2.842-3.788a1.004 1.004 0 0 1 1.4-.199.99.99 0 0 1 .39.659.99.99 0 0 1-.191.741l-2.843 3.79a2.021 2.021 0 0 1-1.601.794zm0 9a1.981 1.981 0 0 1-1.412-.585l-1.541-1.541a.992.992 0 0 1 0-1.414.992.992 0 0 1 .706-.293.99.99 0 0 1 .707.293l1.543 1.543 2.842-3.79a1.004 1.004 0 0 1 1.399-.2 1 1 0 0 1 .2 1.4l-2.843 3.79a2.016 2.016 0 0 1-1.601.797zm7.752-8.998a1 1 0 0 1 0-2h5a1 1 0 0 1 0 2h-5zm0 14a.99.99 0 0 1-.707-.294.993.993 0 0 1-.273-.902l1-5a.997.997 0 0 1 .273-.512L25.46 15.132a3.793 3.793 0 0 1 2.701-1.119 3.833 3.833 0 0 1 2.714 6.534L20.7 30.72a.992.992 0 0 1-.512.274l-4.999 1a1 1 0 0 1-.197.02zm1.275-2.275l3.232-.647 9.96-9.96a1.821 1.821 0 0 0 0-2.573 1.835 1.835 0 0 0-1.304-.543 1.8 1.8 0 0 0-1.283.531l-9.96 9.96-.645 3.232z"/></g></svg>