<!-- Generated by IcoMoon.io -->
<svg version="1.1" xmlns="http://www.w3.org/2000/svg" width="1024" height="1024" viewBox="0 0 1024 1024">
<g id="icomoon-ignore">
</g>
<path d="M505.28 831.968c-184.896 0-368.48-129.728-478.72-251.072-16.49-18.163-26.584-42.392-26.584-68.979 0-26.554 10.069-50.755 26.598-68.995l-0.078 0.087c110.24-121.376 294.080-251.008 479.328-251.008l6.432 0.032 6.528-0.032c184.64 0 368.384 129.6 478.688 250.912 16.507 18.167 26.613 42.409 26.613 69.011 0 26.569-10.081 50.783-26.626 69.027l0.077-0.086c-110.336 121.44-294.272 251.136-479.776 251.136l-6.368-0.032h-6.144zM505.728 255.968c-164.32 0-330.784 118.784-431.776 229.952-6.198 6.852-9.991 15.981-9.991 25.997 0 10.049 3.819 19.206 10.084 26.099l-0.028-0.032c100.96 111.136 267.392 229.984 431.808 229.984l5.568-0.064 5.824 0.064c164.992 0 331.776-118.848 432.832-230.080 6.19-6.85 9.977-15.973 9.977-25.981 0-10.041-3.813-19.192-10.070-26.084l0.029 0.032c-101.056-111.136-267.616-229.856-431.936-229.856l-6.656 0.032-5.664-0.032zM511.904 703.904c-0.141 0-0.309 0.001-0.476 0.001-52.867 0-100.71-21.507-135.259-56.248l-0.009-0.009c-34.711-34.512-56.193-82.296-56.193-135.098 0-0.238 0-0.477 0.001-0.715v0.037c0.146-105.974 86.024-191.841 191.988-191.968h0.012c51.264 0 99.488 19.968 135.744 56.192 34.768 34.541 56.289 82.38 56.289 135.246 0 0.175 0 0.35-0.001 0.525v-0.027c0.001 0.17 0.001 0.371 0.001 0.572 0 52.883-21.52 100.739-56.28 135.29l-0.009 0.009c-34.551 34.712-82.369 56.193-135.204 56.193-0.179 0-0.357 0-0.536-0.001h-0.036zM512 383.904c-70.56 0-128 57.408-128 127.968 0 34.176 13.312 66.336 37.44 90.496 23.033 23.167 54.925 37.505 90.165 37.505 0.139 0 0.278 0 0.416-0.001h-0.021c34.208 0 66.336-13.312 90.496-37.44s37.504-56.32 37.504-90.528c0-0.129 0.001-0.282 0.001-0.435 0-35.228-14.339-67.107-37.498-90.119l-0.007-0.007c-23.042-23.129-54.92-37.44-90.141-37.44-0.125 0-0.249 0-0.374 0.001h0.019z"></path>
</svg>
