<?xml version="1.0" encoding="utf-8"?>
<!-- Generator: Adobe Illustrator 22.1.0, SVG Export Plug-In . SVG Version: 6.00 Build 0)  -->
<svg version="1.1" id="Layer_1" xmlns="http://www.w3.org/2000/svg" xmlns:xlink="http://www.w3.org/1999/xlink" x="0px" y="0px"
	 viewBox="0 0 24 24" style="enable-background:new 0 0 24 24;" xml:space="preserve">
<title>download-bottom</title>
<g>
	<path d="M12.001,16.5c-0.088,0-0.175-0.016-0.26-0.047c-0.008-0.003-0.015-0.005-0.022-0.008c-0.096-0.039-0.179-0.094-0.249-0.165
		L6.971,11.78c-0.142-0.141-0.22-0.33-0.22-0.53s0.078-0.389,0.22-0.53c0.141-0.142,0.33-0.22,0.53-0.22s0.389,0.078,0.53,0.22
		l3.22,3.22V3.75c0-0.414,0.336-0.75,0.75-0.75s0.75,0.336,0.75,0.75v10.189l3.22-3.22c0.142-0.142,0.33-0.22,0.53-0.22
		s0.389,0.078,0.53,0.22c0.142,0.141,0.22,0.33,0.22,0.53s-0.078,0.389-0.22,0.53l-4.5,4.5c-0.07,0.07-0.153,0.125-0.246,0.164
		c-0.008,0.003-0.017,0.007-0.026,0.01C12.174,16.485,12.088,16.5,12.001,16.5z"/>
	<path d="M3.751,21c-2.068,0-3.75-1.682-3.75-3.75v-1.5c0-0.414,0.336-0.75,0.75-0.75s0.75,0.336,0.75,0.75v1.5
		c0,1.241,1.009,2.25,2.25,2.25h16.5c1.241,0,2.25-1.009,2.25-2.25v-1.5c0-0.414,0.336-0.75,0.75-0.75s0.75,0.336,0.75,0.75v1.5
		c0,2.068-1.682,3.75-3.75,3.75H3.751z"/>
</g>
</svg>
