<!-- Generated by IcoMoon.io -->
<svg version="1.1" xmlns="http://www.w3.org/2000/svg" width="1024" height="1024" viewBox="0 0 1024 1024">
<title></title>
<g id="icomoon-ignore">
</g>
<path fill="#000" d="M735.232 1024c-158.72 0-287.744-129.024-287.744-287.744s129.024-287.744 287.744-287.744 288.768 129.024 288.768 287.744-130.048 287.744-288.768 287.744zM735.232 512c-122.88 0-223.232 100.352-223.232 224.256s100.352 224.256 223.232 224.256c123.904 0 224.256-101.376 224.256-224.256s-100.352-224.256-224.256-224.256zM735.232 896c-17.408 0-31.744-14.336-31.744-31.744v-179.2l-40.96 41.984c-6.144 6.144-14.336 9.216-22.528 9.216s-17.408-3.072-23.552-9.216c-12.288-12.288-12.288-32.768 0-45.056l96.256-96.256c3.072-3.072 7.168-5.12 10.24-7.168 1.024 0 1.024 0 2.048 0 3.072-2.048 7.168-2.048 10.24-2.048 4.096 0 8.192 0 11.264 2.048 0 0 1.024 0 1.024 0 4.096 2.048 8.192 4.096 10.24 7.168l96.256 95.232c12.288 13.312 12.288 32.768 0 46.080-6.144 6.144-14.336 9.216-22.528 9.216s-16.384-3.072-22.528-9.216l-40.96-41.984v179.2c0 17.408-14.336 31.744-32.768 31.744zM95.232 896c-52.224 0-96.256-43.008-96.256-96.256v-703.488c0-53.248 44.032-96.256 96.256-96.256h453.632c25.6 0 50.176 10.24 67.584 28.672l122.88 121.856c18.432 18.432 28.672 43.008 28.672 67.584v134.144c0 17.408-14.336 31.744-32.768 31.744s-31.744-14.336-31.744-31.744v-134.144c0-8.192-3.072-16.384-9.216-22.528l-122.88-121.856c-6.144-6.144-13.312-9.216-22.528-9.216h-453.632c-17.408 0-31.744 14.336-31.744 31.744v703.488c0 18.432 14.336 32.768 31.744 32.768h256c18.432 0 32.768 14.336 32.768 31.744s-14.336 31.744-32.768 31.744h-256zM384 480.256c-9.216 0-17.408-3.072-23.552-9.216-5.12-6.144-9.216-14.336-9.216-22.528s4.096-17.408 9.216-22.528l73.728-73.728-73.728-73.728c-5.12-6.144-9.216-14.336-9.216-22.528s4.096-16.384 9.216-22.528c6.144-6.144 14.336-9.216 23.552-9.216s16.384 3.072 22.528 9.216l95.232 96.256c6.144 6.144 10.24 14.336 10.24 22.528s-4.096 16.384-10.24 22.528l-95.232 96.256c-6.144 6.144-14.336 9.216-22.528 9.216zM256 480.256c-9.216 0-17.408-3.072-23.552-9.216l-95.232-96.256c-6.144-6.144-9.216-14.336-9.216-22.528s3.072-16.384 9.216-22.528l95.232-96.256c6.144-6.144 14.336-9.216 23.552-9.216s16.384 3.072 22.528 9.216c6.144 6.144 9.216 14.336 9.216 22.528s-3.072 16.384-9.216 22.528l-73.728 73.728 73.728 73.728c6.144 5.12 9.216 13.312 9.216 22.528s-3.072 16.384-9.216 22.528c-6.144 6.144-14.336 9.216-22.528 9.216z"></path>
</svg>
