<svg xmlns="http://www.w3.org/2000/svg" viewBox="0 0 32 32" width="32" height="32"><title>layout bullets</title><g class="nc-icon-wrapper" fill="#111111"><path d="M13 7.996a3.003 3.003 0 0 1-3-3v-2a3.003 3.003 0 0 1 3-3h16a3.003 3.003 0 0 1 3 3v2a3.003 3.003 0 0 1-3 3H13zm0-6a1 1 0 0 0-1 1v2a1 1 0 0 0 1 1h16a1 1 0 0 0 1-1v-2a1 1 0 0 0-1-1H13zm0 18a3.003 3.003 0 0 1-3-3v-2a3.003 3.003 0 0 1 3-3h16a3.003 3.003 0 0 1 3 3v2a3.003 3.003 0 0 1-3 3H13zm0-6a1 1 0 0 0-1 1v2a1 1 0 0 0 1 1h16a1 1 0 0 0 1-1v-2a1 1 0 0 0-1-1H13zm0 18a3.003 3.003 0 0 1-3-3v-2a3.003 3.003 0 0 1 3-3h16a3.003 3.003 0 0 1 3 3v2a3.003 3.003 0 0 1-3 3H13zm0-6a1 1 0 0 0-1 1v2a1 1 0 0 0 1 1h16a1 1 0 0 0 1-1v-2a1 1 0 0 0-1-1H13zm-10-18a3.003 3.003 0 0 1-3-3v-2a3.003 3.003 0 0 1 3-3h2a3.003 3.003 0 0 1 3 3v2a3.003 3.003 0 0 1-3 3H3zm0-6a1 1 0 0 0-1 1v2a1 1 0 0 0 1 1h2a1 1 0 0 0 1-1v-2a1 1 0 0 0-1-1H3zm0 18a3.003 3.003 0 0 1-3-3v-2a3.003 3.003 0 0 1 3-3h2a3.003 3.003 0 0 1 3 3v2c0 1.655-5 3-5 3zm0-6a1 1 0 0 0-1 1v2a1 1 0 0 0 1 1h2a1 1 0 0 0 1-1v-2a1 1 0 0 0-1-1H3zm0 18a3.003 3.003 0 0 1-3-3v-2a3.003 3.003 0 0 1 3-3h2a3.003 3.003 0 0 1 3 3v2a3.003 3.003 0 0 1-3 3H3zm0-6a1 1 0 0 0-1 1v2a1 1 0 0 0 1 1h2a1 1 0 0 0 1-1v-2a1 1 0 0 0-1-1H3z" fill="#111111"/></g></svg>