<svg xmlns="http://www.w3.org/2000/svg" viewBox="0 0 32 32" width="32" height="32"><title>remove</title><g class="nc-icon-wrapper" fill="#111111"><path d="M26 27a.99.99 0 0 1-.707-.293L16 17.415l-9.293 9.293a.992.992 0 0 1-1.414 0 1.003 1.003 0 0 1 0-1.415L14.587 16 5.293 6.707C5.104 6.519 5 6.267 5 6s.104-.519.293-.707C5.481 5.104 5.733 5 6 5s.519.104.707.293L16 14.587l9.293-9.294a.992.992 0 0 1 1.414 0c.189.188.293.44.293.707s-.104.519-.293.707L17.415 16l9.293 9.293A1 1 0 1 1 26 27z" fill="#111111"/></g></svg>