<svg xmlns="http://www.w3.org/2000/svg" xmlns:xlink="http://www.w3.org/1999/xlink" width="56" height="56" version="1.1" viewBox="0 0 56 56"><g><path fill="none" stroke="#1B1B1B" stroke-linecap="round" stroke-linejoin="round" stroke-width="1" d="M0.59,19.53l1.68,2.53" transform="scale(2.33333)"/><path fill="none" stroke="#1B1B1B" stroke-linecap="round" stroke-linejoin="round" stroke-width="1" d="M9.88,8.27l6.38,9.61" transform="scale(2.33333)"/><path fill="none" stroke="#1B1B1B" stroke-linecap="round" stroke-linejoin="round" stroke-width="1" d="M15.925,17.372l-13.988,4.184l-1.007,-1.518l9.284,-11.267l5.711,8.601Z" transform="scale(2.33333)"/><path fill="none" stroke="#1B1B1B" stroke-linecap="round" stroke-linejoin="round" stroke-width="1" d="M9.216,19.378l-3.98083e-08,-4.56708e-08c0.771138,0.884701 0.679076,2.22702 -0.205625,2.99816c-0.884701,0.771138 -2.22702,0.679076 -2.99816,-0.205625c-0.0592333,-0.0679564 -0.114082,-0.139613 -0.164214,-0.214536l-0.877,-1.321" transform="scale(2.33333)"/><path fill="none" stroke="#1B1B1B" stroke-linecap="round" stroke-linejoin="round" stroke-width="1" d="M3.588,12.46l-0.671,-0.711l3.98494e-08,4.2266e-08c-0.181599,-0.192612 -0.181599,-0.493388 -7.96988e-08,-0.686l1.8,-1.9l-0.6,-2.546l2.97005e-09,1.25925e-08c-0.0608206,-0.257869 0.0900669,-0.518413 0.344,-0.594l2.508,-0.747l0.747,-2.508l-3.32104e-10,1.12173e-09c0.0741497,-0.25045 0.32858,-0.401627 0.584,-0.347l2.545,0.605l1.9,-1.8l4.01326e-08,-3.7838e-08c0.192612,-0.181599 0.493388,-0.181599 0.686,7.56759e-08l1.9,1.8l2.546,-0.6l-1.83957e-08,4.33879e-09c0.257869,-0.0608206 0.518413,0.0900669 0.594,0.344l0.747,2.508l2.508,0.747l8.4804e-09,2.49826e-09c0.256805,0.0756528 0.408455,0.340158 0.344,0.6l-0.596,2.535l1.8,1.9l-8.50221e-09,-9.01782e-09c0.181599,0.192612 0.181599,0.493388 1.70044e-08,0.686l-1.8,1.9l0.605,2.545l4.26082e-09,1.79111e-08c0.061422,0.258199 -0.0895913,0.519399 -0.344,0.595l-2.508,0.747l-0.747,2.508l1.31211e-08,-4.38415e-08c-0.0760202,0.254006 -0.337095,0.404508 -0.595,0.343l-2.545,-0.6l-1.9,1.8l-6.88442e-09,6.4908e-09c-0.192612,0.181599 -0.493388,0.181599 -0.686,-1.29816e-08l-0.361,-0.341" transform="scale(2.33333)"/></g></svg>