<?xml version="1.0" encoding="UTF-8"?>
<svg width="56" height="56" version="1.1" viewBox="0 0 56 56" xmlns="http://www.w3.org/2000/svg" xmlns:xlink="http://www.w3.org/1999/xlink">
    <!--Generated by IJSVG (https://github.com/iconjar/IJSVG)-->
    <g transform="scale(2.33333)">
        <path fill="none" stroke="#1B1B1B" stroke-linecap="round" stroke-linejoin="round" stroke-width="1" d="M20,20.65l-3.93,0.79"></path>
        <path fill="none" stroke="#1B1B1B" stroke-linecap="round" stroke-linejoin="round" stroke-width="1" d="M16.5,17l-1.854,0.761l-5.11184e-10,2.06445e-10c-0.614521,0.248176 -1.31387,-0.0488058 -1.56205,-0.663326c-0.234926,-0.581714 0.0178756,-1.24621 0.580049,-1.52467l1.853,-0.9l-2.31082e-07,1.1556e-07c0.407184,-0.203625 0.88021,-0.230748 1.308,-0.0750002l3.383,1.294"></path>
        <path fill="none" stroke="#1B1B1B" stroke-linecap="round" stroke-linejoin="round" stroke-width="1" d="M9,21.5h1.4l2.33,1.771l-1.26782e-08,-1.42221e-08c0.243976,0.273687 0.660357,0.306327 0.944,0.074l3.5,-2.807l-2.07064e-08,1.70228e-08c0.286512,-0.235543 0.33309,-0.656519 0.105,-0.949l-1.922,-2.118"></path>
        <path fill="none" stroke="#1B1B1B" stroke-linecap="round" stroke-linejoin="round" stroke-width="1" d="M13.51,15.675l-0.25,-0.206l8.58502e-09,6.29905e-09c-0.252303,-0.185121 -0.557068,-0.284958 -0.87,-0.285l-5.85353e-08,-1.15785e-10c-0.186728,-0.000369348 -0.371775,0.0352819 -0.545,0.105l-2.845,1.211"></path>
        <path fill="none" stroke="#1B1B1B" stroke-linecap="round" stroke-linejoin="round" stroke-width="1" d="M6,22.5h2h-4.37114e-08c0.552285,2.41411e-08 1,-0.447715 1,-1v-5v0c0,-0.552285 -0.447715,-1 -1,-1h-2Z"></path>
        <path fill="none" stroke="#1B1B1B" stroke-linecap="round" stroke-linejoin="round" stroke-width="1" d="M23,22.5h-2h-4.37114e-08c-0.552285,-2.41411e-08 -1,-0.447715 -1,-1c0,0 0,-3.55271e-15 0,-3.55271e-15v-5l1.06581e-14,1.50996e-07c-8.33927e-08,-0.552285 0.447715,-1 1,-1h2Z"></path>
        <path fill="none" stroke="#1B1B1B" stroke-linecap="round" stroke-linejoin="round" stroke-width="1" d="M16.5,0.5h-12.5l-1.31134e-07,3.55271e-15c-1.65685,7.24234e-08 -3,1.34315 -3,3c0,0 0,3.55271e-15 0,3.55271e-15v19.5l5.77316e-15,7.54979e-08c4.16963e-08,0.276142 0.223858,0.5 0.5,0.5h2.5"></path>
        <path fill="none" stroke="#1B1B1B" stroke-linecap="round" stroke-linejoin="round" stroke-width="1" d="M4,4.5h7"></path>
        <path fill="none" stroke="#1B1B1B" stroke-linecap="round" stroke-linejoin="round" stroke-width="1" d="M4,7.5h7"></path>
        <path fill="none" stroke="#1B1B1B" stroke-linecap="round" stroke-linejoin="round" stroke-width="1" d="M4,10.5h3.5"></path>
        <path fill="none" stroke="#1B1B1B" stroke-linecap="round" stroke-linejoin="round" stroke-width="1" d="M14,13v-10l2.84217e-14,3.77489e-07c-2.08482e-07,-1.38071 1.11929,-2.5 2.5,-2.5c1.38,0 2.5,1.119 2.5,3h-5"></path>
    </g>
</svg>