<svg xmlns="http://www.w3.org/2000/svg" xmlns:xlink="http://www.w3.org/1999/xlink" width="56" height="56" version="1.1" viewBox="0 0 56 56"><g><path fill="none" stroke="#007095" stroke-linecap="round" stroke-linejoin="round" stroke-width="1" d="M19.7782,4.22283c4.29577,4.29577 4.29577,11.2606 0,15.5563c-4.29577,4.29577 -11.2606,4.29577 -15.5563,0c-4.29577,-4.29577 -4.29577,-11.2606 -2.66454e-15,-15.5563c4.29577,-4.29577 11.2606,-4.29577 15.5563,-2.66454e-15" transform="scale(2.33333)"/><path fill="none" stroke="#007095" stroke-linecap="round" stroke-linejoin="round" stroke-width="1" d="M14.5,17.005h-1.5h-4.37114e-08c-0.552285,-2.41411e-08 -1,-0.447715 -1,-1c0,0 0,-3.55271e-15 0,-3.55271e-15v-6.5v0c0,-0.276142 -0.223858,-0.5 -0.5,-0.5h-1.5" transform="scale(2.33333)"/><path fill="none" stroke="#007095" stroke-linecap="round" stroke-linejoin="round" stroke-width="1" d="M11.74,6.5v0" transform="scale(2.33333)"/><path fill="none" stroke="#007095" stroke-linecap="round" stroke-linejoin="round" stroke-width="1" d="M11.745,6.5h-1.09278e-08c-0.138071,6.03528e-09 -0.25,0.111929 -0.25,0.25c6.03528e-09,0.138071 0.111929,0.25 0.25,0.25c0.138071,-6.03528e-09 0.25,-0.111929 0.25,-0.25v0c0,-0.138071 -0.111929,-0.25 -0.25,-0.25" transform="scale(2.33333)"/></g></svg>