<svg xmlns="http://www.w3.org/2000/svg" xmlns:xlink="http://www.w3.org/1999/xlink" width="56" height="56" version="1.1" viewBox="0 0 56 56"><g><path fill="none" stroke="#1B1B1B" stroke-linecap="round" stroke-linejoin="round" stroke-width="1" d="M9.06066,17.9383c0.585786,0.585786 0.585786,1.53553 0,2.12132c-0.585786,0.585786 -1.53553,0.585786 -2.12132,0c-0.585786,-0.585786 -0.585786,-1.53553 0,-2.12132c0.585786,-0.585786 1.53553,-0.585786 2.12132,0" transform="scale(2.33333)"/><path fill="none" stroke="#1B1B1B" stroke-linecap="round" stroke-linejoin="round" stroke-width="1" d="M0.5,0.5h2.708l4.32338e-08,1.84377e-11c0.463907,0.00019785 0.866765,0.31942 0.973,0.771l3.819,16.229h4" transform="scale(2.33333)"/><path fill="none" stroke="#1B1B1B" stroke-linecap="round" stroke-linejoin="round" stroke-width="1" d="M21.984,11.046l1.077,-3.229l4.87377e-08,-1.45817e-07c0.175074,-0.523801 -0.107625,-1.09035 -0.631426,-1.26543c-0.102381,-0.0342195 -0.209627,-0.0516363 -0.317575,-0.0515743h-16.7" transform="scale(2.33333)"/><path fill="none" stroke="#1B1B1B" stroke-linecap="round" stroke-linejoin="round" stroke-width="1" d="M7.29,14.5h4.69" transform="scale(2.33333)"/><path fill="none" stroke="#1B1B1B" stroke-linecap="round" stroke-linejoin="round" stroke-width="1" d="M22.0355,14.9635c1.95262,1.95262 1.95262,5.11845 0,7.07107c-1.95262,1.95262 -5.11845,1.95262 -7.07107,0c-1.95262,-1.95262 -1.95262,-5.11845 0,-7.07107c1.95262,-1.95262 5.11845,-1.95262 7.07107,0" transform="scale(2.33333)"/><path fill="none" stroke="#1B1B1B" stroke-linecap="round" stroke-linejoin="round" stroke-width="1" d="M16.5,19l1.083,1.083l-3.67503e-08,-3.66937e-08c0.195413,0.195112 0.511995,0.194868 0.707107,-0.000544702c0.0193082,-0.019338 0.0369986,-0.0402264 0.0528934,-0.0624552l2.157,-3.02" transform="scale(2.33333)"/></g></svg>