<svg width="269" height="183" viewBox="0 0 269 183" fill="none" xmlns="http://www.w3.org/2000/svg">
<g clip-path="url(#clip0_552_50924)">
<rect width="269" height="183" fill="#F8F8F8"/>
<g filter="url(#filter0_dddd_552_50924)">
<g clip-path="url(#clip1_552_50924)">
<rect x="44" y="32.5" width="179.076" height="118.479" rx="4.52213" fill="white"/>
<rect x="50.3301" y="50.7625" width="10.0882" height="55.2832" rx="2.01764" fill="#EBEBEB"/>
<rect width="34.7033" height="3.22822" transform="matrix(0 -1 1 0 53.5576 95.5541)" fill="white"/>
<rect x="61.6304" y="50.7623" width="10.0882" height="27.0363" rx="2.01764" fill="#F8F8F8"/>
<rect width="18.5623" height="3.22822" transform="matrix(0 -1 1 0 64.8594 73.3598)" fill="#EBEBEB"/>
<rect x="73.2017" y="50.7273" width="143.544" height="27.2491" rx="2.01764" fill="#F8F8F8"/>
<rect x="152.079" y="56.3019" width="28.2469" height="15.6075" rx="2.01764" fill="white"/>
<rect width="18.9658" height="3.22822" transform="translate(156.921 59.9337)" fill="#E7E7E7"/>
<rect width="21.3869" height="3.22822" transform="translate(155.71 64.7761)" fill="#E7E7E7"/>
<rect x="103.692" y="56.3019" width="28.0371" height="15.8274" rx="2.01764" fill="white"/>
<rect width="22.3707" height="3.1215" transform="translate(106.517 62.3547)" fill="#E7E7E7"/>
<circle cx="84.4727" cy="64.2157" r="3.61379" fill="white" stroke="#6BACC2" stroke-width="0.460022"/>
<path d="M102.561 63.9896H89.2212" stroke="#DFDFDF" stroke-width="0.678319"/>
<circle cx="200.931" cy="64.2054" r="3.52683" fill="white" stroke="#007095" stroke-width="0.613362"/>
<path d="M195.796 64.1891H181.472" stroke="#DFDFDF" stroke-width="0.678319"/>
<rect x="61.6299" y="79.0092" width="10.0882" height="27.0363" rx="2.01764" fill="#F8F8F8"/>
<rect width="18.5623" height="3.22822" transform="matrix(0 -1 1 0 64.8589 101.607)" fill="#EBEBEB"/>
<rect x="73.2002" y="78.9496" width="143.544" height="27.2491" rx="2.01764" fill="#F8F8F8"/>
<rect x="103.239" y="84.7914" width="28.2469" height="15.6075" rx="2.01764" fill="white"/>
<rect width="17.7552" height="3.22822" transform="translate(108.485 90.8442)" fill="#E7E7E7"/>
<path d="M159.54 92.4788H133.085" stroke="#DFDFDF" stroke-width="0.678319"/>
<rect width="8.59856" height="8.59856" transform="translate(160.478 92.6801) rotate(-45)" fill="white"/>
<path d="M164.952 94.2199L168.097 91.0753" stroke="#BFBFBF" stroke-width="0.362851" stroke-linecap="round"/>
<path d="M164.952 91.0752L168.097 94.2199" stroke="#BFBFBF" stroke-width="0.362851" stroke-linecap="round"/>
<path d="M117.71 81.1127V69.5813" stroke="#DFDFDF" stroke-width="0.678319"/>
<path d="M166.549 82.6954V69.5813" stroke="#DFDFDF" stroke-width="0.678319"/>
<rect x="50.3301" y="108.783" width="21.4802" height="27.3384" rx="2.01764" fill="#F8F8F8"/>
<rect width="18.5623" height="3.22822" transform="matrix(0 -1 1 0 64.6235 131.38)" fill="#EBEBEB"/>
<rect x="73.2002" y="108.872" width="143.544" height="27.2491" rx="2.01764" fill="#F8F8F8"/>
<rect x="152.53" y="114.637" width="28.2469" height="15.7376" rx="2.01764" fill="white"/>
<rect width="12.6619" height="2.71327" transform="translate(160.157 120.875)" fill="#E7E7E7"/>
<circle cx="200.931" cy="122.541" r="3.52683" fill="white" stroke="#007095" stroke-width="0.613362"/>
<path d="M195.795 122.524H181.471" stroke="#DFDFDF" stroke-width="0.605292"/>
<path d="M166.549 110.959V96.2617" stroke="#DFDFDF" stroke-width="0.678319"/>
<rect width="180.139" height="7.68367" transform="translate(43.4297 32.5798)" fill="#EBEBEB"/>
<circle cx="48.1988" cy="36.4954" r="0.92734" fill="#BFBFBF"/>
<circle cx="51.1134" cy="36.4953" r="0.92734" fill="#BFBFBF"/>
<circle cx="54.0279" cy="36.4953" r="0.92734" fill="#BFBFBF"/>
</g>
</g>
</g>
<defs>
<filter id="filter0_dddd_552_50924" x="26.3637" y="28.8823" width="214.348" height="184.05" filterUnits="userSpaceOnUse" color-interpolation-filters="sRGB">
<feFlood flood-opacity="0" result="BackgroundImageFix"/>
<feColorMatrix in="SourceAlpha" type="matrix" values="0 0 0 0 0 0 0 0 0 0 0 0 0 0 0 0 0 0 127 0" result="hardAlpha"/>
<feOffset dy="2.71328"/>
<feGaussianBlur stdDeviation="3.16549"/>
<feColorMatrix type="matrix" values="0 0 0 0 0 0 0 0 0 0 0 0 0 0 0 0 0 0 0.1 0"/>
<feBlend mode="normal" in2="BackgroundImageFix" result="effect1_dropShadow_552_50924"/>
<feColorMatrix in="SourceAlpha" type="matrix" values="0 0 0 0 0 0 0 0 0 0 0 0 0 0 0 0 0 0 127 0" result="hardAlpha"/>
<feOffset dy="11.3053"/>
<feGaussianBlur stdDeviation="5.65266"/>
<feColorMatrix type="matrix" values="0 0 0 0 0 0 0 0 0 0 0 0 0 0 0 0 0 0 0.09 0"/>
<feBlend mode="normal" in2="effect1_dropShadow_552_50924" result="effect2_dropShadow_552_50924"/>
<feColorMatrix in="SourceAlpha" type="matrix" values="0 0 0 0 0 0 0 0 0 0 0 0 0 0 0 0 0 0 127 0" result="hardAlpha"/>
<feOffset dy="24.8717"/>
<feGaussianBlur stdDeviation="7.46151"/>
<feColorMatrix type="matrix" values="0 0 0 0 0 0 0 0 0 0 0 0 0 0 0 0 0 0 0.05 0"/>
<feBlend mode="normal" in2="effect2_dropShadow_552_50924" result="effect3_dropShadow_552_50924"/>
<feColorMatrix in="SourceAlpha" type="matrix" values="0 0 0 0 0 0 0 0 0 0 0 0 0 0 0 0 0 0 127 0" result="hardAlpha"/>
<feOffset dy="44.3168"/>
<feGaussianBlur stdDeviation="8.81814"/>
<feColorMatrix type="matrix" values="0 0 0 0 0 0 0 0 0 0 0 0 0 0 0 0 0 0 0.01 0"/>
<feBlend mode="normal" in2="effect3_dropShadow_552_50924" result="effect4_dropShadow_552_50924"/>
<feBlend mode="normal" in="SourceGraphic" in2="effect4_dropShadow_552_50924" result="shape"/>
</filter>
<clipPath id="clip0_552_50924">
<rect width="269" height="183" fill="white"/>
</clipPath>
<clipPath id="clip1_552_50924">
<rect x="44" y="32.5" width="179.076" height="118.479" rx="4.52213" fill="white"/>
</clipPath>
</defs>
</svg>
