<svg xmlns="http://www.w3.org/2000/svg" viewBox="0 0 623.62205 93.75861">
  <defs>
    <style>
      .acaa3874-16b7-4c94-9b43-d64955716b45 {
        fill: #1b1b1b;
      }
    </style>
  </defs>
  <g id="ffb149c6-1a15-43a7-ab6a-00723db843c5" data-name="Ebene 2">
    <g id="a5d4b8dc-a6c3-46c9-811d-a48b13b43fb1" data-name="Ebene 1">
      <g>
        <path class="acaa3874-16b7-4c94-9b43-d64955716b45" d="M154.48411,1.47332h-6.155c-5.07236,0-5.08562-.00013-6.63641,4.89335-1.02077,3.22079-6.18633,19.25132-6.807,21.2031-1.49367,4.69725-5.83723,17.33052-5.83723,17.33052h-.88779s-4.34356-12.63327-5.83724-17.33052c-.62067-1.95178-5.78623-17.98231-6.807-21.2031-1.55079-4.89348-1.56418-4.89335-6.63654-4.89335h-6.15484l15.83673,45.406L102.725,92.28527h6.155c5.07236,0,5.08562.00013,6.63641-4.89335,1.02077-3.22079,6.18633-19.25132,6.807-21.2031,1.49367-4.69712,5.83723-17.3304,5.83723-17.3304h.88779s4.34357,12.63328,5.83724,17.3304c.62067,1.95178,5.78623,17.98231,6.807,21.2031,1.55079,4.89348,1.56418,4.89335,6.63654,4.89335H154.484l-15.8366-45.40591Z"/>
        <path class="acaa3874-16b7-4c94-9b43-d64955716b45" d="M272.62088,46.8793A46.46693,46.46693,0,1,1,226.15578,0,46.67358,46.67358,0,0,1,272.62088,46.8793Zm-11.53944.19026c0-20.57032-15.75244-37.30517-35.11467-37.30517s-35.11424,16.73485-35.11424,37.30517,15.752,37.30562,35.11424,37.30562S261.08144,67.63988,261.08144,47.06956Z"/>
        <path class="acaa3874-16b7-4c94-9b43-d64955716b45" d="M44.63215,1.47332l-13.73032.00013L0,92.28527H6.77291c5.14529,0,5.14644-.0037,6.73191-4.89322,1.58534-4.88952,19.53872-59.47969,19.53872-59.47969,1.75045-5.524,4.06428-16.69085,4.06428-16.69085h1.31834S40.74,22.3884,42.49044,27.91236c0,0,17.95337,54.59017,19.53885,59.47969,1.58534,4.88952,1.58661,4.89322,6.7319,4.89322H75.534Z"/>
        <path class="acaa3874-16b7-4c94-9b43-d64955716b45" d="M360.90019,1.47332h-5.22574c-5.07236,0-5.07236,0-5.07236,5.07236V82.53785H348.5214s-2.94042-11.167-4.69087-16.69111L320.88079,1.47332H302.08693v90.812h5.22574c5.07236,0,5.07236,0,5.07236-5.07236V11.22138h2.08081s2.94068,11.1674,4.69114,16.69137l22.94948,64.37316,18.79373-.00077Z"/>
        <path class="acaa3874-16b7-4c94-9b43-d64955716b45" d="M409.86033,92.28513h-3.367V1.53225h3.367Z"/>
        <path class="acaa3874-16b7-4c94-9b43-d64955716b45" d="M484.78306,83.43473l1.80984,5.48335,1.8057-5.48335L518.876,1.53225h3.67766L488.64709,92.28513h-4.11252L450.628,1.53225h3.67766Z"/>
        <path class="acaa3874-16b7-4c94-9b43-d64955716b45" d="M587.7193,54.76306,619.50953,1.53225H623.622l-34.21716,56.2831V92.28513h-3.36705V57.81535L551.82069,1.53225h4.48525Z"/>
      </g>
    </g>
  </g>
</svg>
