<?xml version="1.0" encoding="UTF-8"?>
<svg width="56" height="56" version="1.1" viewBox="0 0 56 56" xmlns="http://www.w3.org/2000/svg" xmlns:xlink="http://www.w3.org/1999/xlink">
    <!--Generated by IJSVG (https://github.com/iconjar/IJSVG)-->
    <g transform="scale(2.33333)">
        <path fill="none" stroke="#1B1B1B" stroke-linecap="round" stroke-linejoin="round" stroke-width="1" d="M7.5,23.5l0.5,-6h2.5v-3.5v0c0,-2.76142 -2.23858,-5 -5,-5c-2.76142,0 -5,2.23858 -5,5v3.5h2.5l0.5,6Z"></path>
        <path fill="none" stroke="#1B1B1B" stroke-linecap="round" stroke-linejoin="round" stroke-width="1" d="M7.97487,1.52513c1.36684,1.36684 1.36684,3.58291 0,4.94975c-1.36684,1.36684 -3.58291,1.36684 -4.94975,8.88178e-16c-1.36684,-1.36684 -1.36684,-3.58291 -8.88178e-16,-4.94975c1.36684,-1.36684 3.58291,-1.36684 4.94975,-8.88178e-16"></path>
        <path fill="none" stroke="#1B1B1B" stroke-linecap="round" stroke-linejoin="round" stroke-width="1" d="M20.5,11.5l3,-3l-3,-3"></path>
        <path fill="none" stroke="#1B1B1B" stroke-linecap="round" stroke-linejoin="round" stroke-width="1" d="M13.5,8.5h10"></path>
    </g>
</svg>