<?xml version="1.0" encoding="UTF-8"?>
<svg width="56" height="56" version="1.1" viewBox="0 0 56 56" xmlns="http://www.w3.org/2000/svg" xmlns:xlink="http://www.w3.org/1999/xlink">
    <!--Generated by IJSVG (https://github.com/iconjar/IJSVG)-->
    <g transform="scale(2.33333)">
        <path fill="none" stroke="#1B1B1B" stroke-linecap="round" stroke-linejoin="round" stroke-width="1" d="M23.5,18.5v0c0,2.76142 -2.23858,5 -5,5c-2.76142,0 -5,-2.23858 -5,-5c0,-2.76142 2.23858,-5 5,-5"></path>
        <path fill="none" stroke="#1B1B1B" stroke-linecap="round" stroke-linejoin="round" stroke-width="1" d="M16.5,18.5l1.62,1.215l-1.31955e-08,-9.89066e-09c0.212956,0.159621 0.513626,0.124455 0.684,-0.08l4.696,-5.635"></path>
        <path fill="none" stroke="#1B1B1B" stroke-linecap="round" stroke-linejoin="round" stroke-width="1" d="M9.03953,1.96447c1.95262,1.95262 1.95262,5.11845 0,7.07107c-1.95262,1.95262 -5.11845,1.95262 -7.07107,0c-1.95262,-1.95262 -1.95262,-5.11845 -8.88178e-16,-7.07107c1.95262,-1.95262 5.11845,-1.95262 7.07107,-8.88178e-16"></path>
        <path fill="none" stroke="#1B1B1B" stroke-linecap="round" stroke-linejoin="round" stroke-width="1" d="M5.5,7.5v1"></path>
        <path fill="none" stroke="#1B1B1B" stroke-linecap="round" stroke-linejoin="round" stroke-width="1" d="M5.5,2.5v1"></path>
        <path fill="none" stroke="#1B1B1B" stroke-linecap="round" stroke-linejoin="round" stroke-width="1" d="M3.5,7.5h3l-4.37114e-08,-8.88178e-16c0.552285,2.41411e-08 1,-0.447715 1,-1c2.41411e-08,-0.552285 -0.447715,-1 -1,-1h-2l-4.37114e-08,-8.88178e-16c-0.552285,-2.41411e-08 -1,-0.447715 -1,-1c2.41411e-08,-0.552285 0.447715,-1 1,-1h3"></path>
        <path fill="none" stroke="#1B1B1B" stroke-linecap="round" stroke-linejoin="round" stroke-width="1" d="M12,22.5l-4.5897e-07,-1.06581e-14c-5.79899,-2.53482e-07 -10.5,-4.70101 -10.5,-10.5c0,0 0,-3.55271e-15 0,-3.55271e-15"></path>
        <path fill="none" stroke="#1B1B1B" stroke-linecap="round" stroke-linejoin="round" stroke-width="1" d="M12,1.5l-4.5897e-07,1.06581e-14c5.79899,-2.53482e-07 10.5,4.70101 10.5,10.5"></path>
    </g>
</svg>